<svg xmlns="http://www.w3.org/2000/svg" version="1.1" xmlns:xlink="http://www.w3.org/1999/xlink" xmlns:svgjs="http://svgjs.dev/svgjs" width="1920" height="1080" preserveAspectRatio="none" viewBox="0 0 1920 1080"><g clip-path="url(&quot;#SvgjsClipPath1133&quot;)" fill="none"><rect width="1920" height="1080" x="0" y="0" fill="#0e2a47"></rect><circle r="180" cx="72.77" cy="-67.6" stroke="#e7e8eb" stroke-opacity="1" stroke-width="2"></circle><circle r="180" cx="592.56" cy="817.58" stroke="#e7e8eb" stroke-opacity="1" stroke-width="2"></circle><circle r="344.67" cx="1300.76" cy="553.49" stroke="#e7e8eb" stroke-opacity="1" stroke-width="2"></circle><circle r="215.765" cx="785.3" cy="910.21" stroke="#e7e8eb" stroke-opacity="1" stroke-width="2"></circle><circle r="242.17" cx="975.16" cy="295.9" stroke="#e7e8eb" stroke-opacity="1" stroke-width="2"></circle><circle r="112.61" cx="1339.19" cy="213.51" stroke="#e7e8eb" stroke-opacity="1" stroke-width="2"></circle><circle r="178.07" cx="1035.55" cy="67.99" stroke="#e7e8eb" stroke-opacity="1" stroke-width="2"></circle><circle r="181.705" cx="1344.23" cy="559.23" stroke="#e7e8eb" stroke-opacity="1" stroke-width="2"></circle><circle r="212.55" cx="1268.22" cy="427.91" stroke="#e7e8eb" stroke-opacity="1" stroke-width="2"></circle><circle r="290" cx="1816.77" cy="979.94" stroke="#e7e8eb" stroke-opacity="1" stroke-width="2"></circle><circle r="98.87" cx="1722.15" cy="40.54" stroke="#e7e8eb" stroke-opacity="1" stroke-width="2"></circle><circle r="352.245" cx="1691.72" cy="267.31" stroke="#e7e8eb" stroke-opacity="1" stroke-width="2"></circle><circle r="104.25" cx="520.5" cy="722.31" stroke="#e7e8eb" stroke-opacity="1" stroke-width="2"></circle><circle r="237.18" cx="243.22" cy="1073" stroke="#e7e8eb" stroke-opacity="1" stroke-width="2"></circle><circle r="300.255" cx="1041.59" cy="447.6" stroke="#e7e8eb" stroke-opacity="1" stroke-width="2"></circle><circle r="355.665" cx="1700.48" cy="978.31" stroke="#e7e8eb" stroke-opacity="1" stroke-width="2"></circle><circle r="281.835" cx="98.22" cy="795.99" stroke="#e7e8eb" stroke-opacity="1" stroke-width="2"></circle><circle r="352.53" cx="848.93" cy="10.37" stroke="#e7e8eb" stroke-opacity="1" stroke-width="2"></circle><circle r="245.245" cx="1667.76" cy="435.11" stroke="#e7e8eb" stroke-opacity="1" stroke-width="2"></circle><circle r="293.585" cx="1074.14" cy="194.04" stroke="#e7e8eb" stroke-opacity="1" stroke-width="2"></circle><circle r="311" cx="551.28" cy="582.85" stroke="#e7e8eb" stroke-opacity="1" stroke-width="2"></circle><circle r="227.515" cx="1690.37" cy="387.18" stroke="#e7e8eb" stroke-opacity="1" stroke-width="2"></circle><circle r="274.9" cx="1540.03" cy="533.03" stroke="#e7e8eb" stroke-opacity="1" stroke-width="2"></circle><circle r="330.075" cx="1815.68" cy="613.11" stroke="#e7e8eb" stroke-opacity="1" stroke-width="2"></circle><circle r="104.875" cx="65.93" cy="210.88" stroke="#e7e8eb" stroke-opacity="1" stroke-width="2"></circle><circle r="195.56" cx="920.79" cy="481.36" stroke="#e7e8eb" stroke-opacity="1" stroke-width="2"></circle><circle r="289.39" cx="772.2" cy="643.63" stroke="#e7e8eb" stroke-opacity="1" stroke-width="2"></circle><circle r="93.02" cx="980.55" cy="674.19" stroke="#e7e8eb" stroke-opacity="1" stroke-width="2"></circle></g><defs><clipPath id="SvgjsClipPath1133"><rect width="1920" height="1080" x="0" y="0"></rect></clipPath></defs></svg>